workdir? /project/6001902/jklymak/ButeWinds3D/python
/project/6001902/jklymak/ButeWinds3D/python
ffmpeg version 4.2.2 Copyright (c) 2000-2019 the FFmpeg developers
  built with gcc 9.3.0 (Gentoo 9.3.0 p2)
  configuration: --prefix=/cvmfs/soft.computecanada.ca/gentoo/2020/usr --libdir=/cvmfs/soft.computecanada.ca/gentoo/2020/usr/lib64 --shlibdir=/cvmfs/soft.computecanada.ca/gentoo/2020/usr/lib64 --docdir=/cvmfs/soft.computecanada.ca/gentoo/2020/usr/share/doc/ffmpeg-4.2.2/html --mandir=/cvmfs/soft.computecanada.ca/gentoo/2020/usr/share/man --enable-shared --cc=x86_64-pc-linux-gnu-gcc --cxx=x86_64-pc-linux-gnu-g++ --ar=x86_64-pc-linux-gnu-ar --optflags='-O2 -pipe -march=nocona -mtune=generic -O2 -ftree-vectorize -fno-math-errno -pipe' --disable-static --enable-avfilter --enable-avresample --disable-stripping --disable-optimizations --disable-libcelt --disable-indev=v4l2 --disable-outdev=v4l2 --disable-indev=oss --disable-indev=jack --disable-outdev=oss --enable-bzlib --disable-runtime-cpudetect --disable-debug --disable-gcrypt --disable-gnutls --disable-gmp --enable-gpl --disable-hardcoded-tables --enable-iconv --disable-libtls --disable-libxml2 --enable-lzma --enable-network --disable-opencl --disable-openssl --enable-postproc --disable-libsmbclient --enable-ffplay --enable-sdl2 --disable-vaapi --disable-vdpau --enable-xlib --enable-libxcb --enable-libxcb-shm --enable-libxcb-xfixes --enable-zlib --disable-libcdio --disable-libiec61883 --disable-libdc1394 --disable-libcaca --disable-openal --enable-opengl --disable-libv4l2 --disable-libpulse --disable-libdrm --disable-libjack --disable-libopencore-amrwb --disable-libopencore-amrnb --disable-libcodec2 --disable-libdav1d --disable-libfdk-aac --enable-libopenjpeg --disable-libbluray --disable-libgme --disable-libgsm --disable-libaribb24 --disable-mmal --disable-libmodplug --disable-libopus --disable-libilbc --disable-librtmp --disable-libssh --disable-libspeex --disable-libsrt --enable-librsvg --disable-ffnvcodec --enable-libvorbis --disable-libvpx --disable-libzvbi --disable-appkit --disable-libbs2b --disable-chromaprint --disable-cuda-llvm --disable-libflite --disable-frei0r --disable-libfribidi --enable-fontconfig --enable-ladspa --disable-libass --disable-libtesseract --disable-lv2 --enable-libfreetype --disable-libvidstab --disable-librubberband --disable-libzmq --disable-libzimg --disable-libsoxr --enable-pthreads --disable-libvo-amrwbenc --enable-libmp3lame --disable-libkvazaar --disable-libaom --disable-libopenh264 --disable-libsnappy --enable-libtheora --disable-libtwolame --enable-libwavpack --enable-libwebp --enable-libx264 --enable-libx265 --enable-libxvid --disable-armv5te --disable-armv6 --disable-armv6t2 --disable-neon --disable-vfp --disable-vfpv3 --disable-armv8 --disable-mipsdsp --disable-mipsdspr2 --disable-mipsfpu --disable-altivec --disable-amd3dnow --disable-amd3dnowext --disable-aesni --disable-avx --disable-avx2 --disable-fma3 --disable-fma4 --disable-sse3 --disable-ssse3 --disable-sse4 --disable-sse42 --disable-xop --cpu=nocona --disable-doc --disable-htmlpages --enable-manpages
  libavutil      56. 31.100 / 56. 31.100
  libavcodec     58. 54.100 / 58. 54.100
  libavformat    58. 29.100 / 58. 29.100
  libavdevice    58.  8.100 / 58.  8.100
  libavfilter     7. 57.100 /  7. 57.100
  libavresample   4.  0.  0 /  4.  0.  0
  libswscale      5.  5.100 /  5.  5.100
  libswresample   3.  5.100 /  3.  5.100
  libpostproc    55.  5.100 / 55.  5.100
Input #0, image2, from '../results/Bute3d43Stop5d/Movie/frame%04d.png':
  Duration: 00:00:22.80, start: 0.000000, bitrate: N/A
    Stream #0:0: Video: png, rgba(pc), 700x700 [SAR 3937:3937 DAR 1:1], 20 fps, 20 tbr, 20 tbn, 20 tbc
Stream mapping:
  Stream #0:0 -> #0:0 (png (native) -> h264 (libx264))
Press [q] to stop, [?] for help
[libx264 @ 0x560351efb5c0] using SAR=1/1
[libx264 @ 0x560351efb5c0] using cpu capabilities: MMX2 SSE2Fast SSSE3 SSE4.2 AVX FMA3 BMI2 AVX2
[libx264 @ 0x560351efb5c0] profile High, level 3.1, 4:2:0, 8-bit
[libx264 @ 0x560351efb5c0] 264 - core 157 - H.264/MPEG-4 AVC codec - Copyleft 2003-2018 - http://www.videolan.org/x264.html - options: cabac=1 ref=3 deblock=1:0:0 analyse=0x3:0x113 me=hex subme=7 psy=1 psy_rd=1.00:0.00 mixed_ref=1 me_range=16 chroma_me=1 trellis=1 8x8dct=1 cqm=0 deadzone=21,11 fast_pskip=1 chroma_qp_offset=-2 threads=1 lookahead_threads=1 sliced_threads=0 nr=0 decimate=1 interlaced=0 bluray_compat=0 constrained_intra=0 bframes=3 b_pyramid=2 b_adapt=1 b_bias=0 direct=1 weightb=1 open_gop=0 weightp=2 keyint=250 keyint_min=20 scenecut=40 intra_refresh=0 rc_lookahead=40 rc=crf mbtree=1 crf=25.0 qcomp=0.60 qpmin=0 qpmax=69 qpstep=4 ip_ratio=1.40 aq=1:1.00
Output #0, mp4, to '../results/Bute3d43Stop5d/Movie/Full.mp4':
  Metadata:
    encoder         : Lavf58.29.100
    Stream #0:0: Video: h264 (libx264) (avc1 / 0x31637661), yuv420p, 700x700 [SAR 1:1 DAR 1:1], q=-1--1, 20 fps, 10240 tbn, 20 tbc
    Metadata:
      encoder         : Lavc58.54.100 libx264
    Side data:
      cpb: bitrate max/min/avg: 0/0/0 buffer size: 0 vbv_delay: -1
frame=   21 fps=0.0 q=0.0 size=       0kB time=00:00:00.00 bitrate=N/A speed=   0x    frame=   33 fps= 32 q=0.0 size=       0kB time=00:00:00.00 bitrate=N/A speed=   0x    frame=   43 fps= 26 q=30.0 size=       0kB time=-00:00:00.04 bitrate=N/A speed=N/A    frame=   50 fps= 23 q=30.0 size=       0kB time=00:00:00.30 bitrate=   1.3kbits/s speed=0.136x    frame=   57 fps= 21 q=30.0 size=       0kB time=00:00:00.65 bitrate=   0.6kbits/s speed=0.235x    frame=   65 fps= 19 q=30.0 size=       0kB time=00:00:01.05 bitrate=   0.4kbits/s speed=0.312x    frame=   72 fps= 18 q=30.0 size=       0kB time=00:00:01.40 bitrate=   0.3kbits/s speed=0.343x    frame=   78 fps= 17 q=30.0 size=       0kB time=00:00:01.70 bitrate=   0.2kbits/s speed=0.368x    frame=   84 fps= 16 q=30.0 size=       0kB time=00:00:02.00 bitrate=   0.2kbits/s speed=0.39x    frame=   92 fps= 16 q=30.0 size=       0kB time=00:00:02.40 bitrate=   0.2kbits/s speed=0.422x    frame=   98 fps= 16 q=30.0 size=       0kB time=00:00:02.70 bitrate=   0.1kbits/s speed=0.431x    frame=  104 fps= 15 q=30.0 size=       0kB time=00:00:03.00 bitrate=   0.1kbits/s speed=0.441x    frame=  112 fps= 15 q=30.0 size=     256kB time=00:00:03.40 bitrate= 616.9kbits/s speed=0.462x    frame=  119 fps= 15 q=30.0 size=     256kB time=00:00:03.75 bitrate= 559.3kbits/s speed=0.471x    frame=  125 fps= 14 q=30.0 size=     256kB time=00:00:04.05 bitrate= 517.9kbits/s speed=0.46x    frame=  133 fps= 14 q=30.0 size=     256kB time=00:00:04.45 bitrate= 471.3kbits/s speed=0.477x    frame=  138 fps= 14 q=30.0 size=     256kB time=00:00:04.70 bitrate= 446.3kbits/s speed=0.474x    frame=  146 fps= 14 q=30.0 size=     256kB time=00:00:05.10 bitrate= 411.3kbits/s speed=0.488x    frame=  152 fps= 14 q=30.0 size=     256kB time=00:00:05.40 bitrate= 388.4kbits/s speed=0.481x    frame=  156 fps= 13 q=30.0 size=     256kB time=00:00:05.60 bitrate= 374.6kbits/s speed=0.475x    frame=  164 fps= 13 q=30.0 size=     256kB time=00:00:06.00 bitrate= 349.6kbits/s speed=0.485x    frame=  170 fps= 13 q=30.0 size=     256kB time=00:00:06.30 bitrate= 332.9kbits/s speed=0.488x    frame=  177 fps= 13 q=30.0 size=     256kB time=00:00:06.65 bitrate= 315.4kbits/s speed=0.495x    frame=  186 fps= 13 q=30.0 size=     256kB time=00:00:07.10 bitrate= 295.4kbits/s speed=0.51x    frame=  193 fps= 13 q=30.0 size=     256kB time=00:00:07.45 bitrate= 281.5kbits/s speed=0.514x    frame=  199 fps= 13 q=30.0 size=     512kB time=00:00:07.75 bitrate= 541.2kbits/s speed=0.511x    frame=  206 fps= 13 q=30.0 size=     512kB time=00:00:08.10 bitrate= 517.9kbits/s speed=0.517x    frame=  208 fps= 13 q=30.0 size=     512kB time=00:00:08.20 bitrate= 511.5kbits/s speed=0.505x    frame=  213 fps= 13 q=30.0 size=     512kB time=00:00:08.45 bitrate= 496.4kbits/s speed=0.504x    frame=  221 fps= 13 q=30.0 size=     512kB time=00:00:08.85 bitrate= 474.0kbits/s speed=0.512x    frame=  228 fps= 13 q=30.0 size=     512kB time=00:00:09.20 bitrate= 455.9kbits/s speed=0.517x    frame=  234 fps= 13 q=30.0 size=     512kB time=00:00:09.50 bitrate= 441.5kbits/s speed=0.518x    frame=  241 fps= 13 q=30.0 size=     512kB time=00:00:09.85 bitrate= 425.9kbits/s speed=0.522x    frame=  246 fps= 13 q=30.0 size=     512kB time=00:00:10.10 bitrate= 415.3kbits/s speed=0.517x    frame=  252 fps= 13 q=30.0 size=     512kB time=00:00:10.40 bitrate= 403.3kbits/s speed=0.519x    frame=  259 fps= 13 q=30.0 size=     512kB time=00:00:10.75 bitrate= 390.2kbits/s speed=0.521x    frame=  265 fps= 13 q=30.0 size=     768kB time=00:00:11.05 bitrate= 569.4kbits/s speed=0.522x    frame=  273 fps= 13 q=30.0 size=     768kB time=00:00:11.45 bitrate= 549.5kbits/s speed=0.527x    frame=  279 fps= 13 q=30.0 size=     768kB time=00:00:11.75 bitrate= 535.5kbits/s speed=0.528x    frame=  287 fps= 13 q=30.0 size=     768kB time=00:00:12.15 bitrate= 517.8kbits/s speed=0.533x    frame=  291 fps= 12 q=30.0 size=     768kB time=00:00:12.35 bitrate= 509.5kbits/s speed=0.529x    frame=  298 fps= 12 q=30.0 size=     768kB time=00:00:12.70 bitrate= 495.4kbits/s speed=0.532x    frame=  308 fps= 13 q=30.0 size=     768kB time=00:00:13.20 bitrate= 476.7kbits/s speed=0.541x    frame=  316 fps= 13 q=30.0 size=     768kB time=00:00:13.60 bitrate= 462.6kbits/s speed=0.545x    frame=  323 fps= 13 q=30.0 size=     768kB time=00:00:13.95 bitrate= 451.0kbits/s speed=0.548x    frame=  332 fps= 13 q=30.0 size=    1024kB time=00:00:14.40 bitrate= 582.6kbits/s speed=0.554x    frame=  341 fps= 13 q=30.0 size=    1024kB time=00:00:14.85 bitrate= 564.9kbits/s speed=0.559x    frame=  345 fps= 13 q=30.0 size=    1024kB time=00:00:15.05 bitrate= 557.4kbits/s speed=0.546x    frame=  352 fps= 12 q=30.0 size=    1024kB time=00:00:15.40 bitrate= 544.7kbits/s speed=0.543x    frame=  361 fps= 12 q=30.0 size=    1024kB time=00:00:15.85 bitrate= 529.3kbits/s speed=0.548x    frame=  369 fps= 13 q=30.0 size=    1024kB time=00:00:16.25 bitrate= 516.2kbits/s speed=0.552x    frame=  377 fps= 13 q=30.0 size=    1024kB time=00:00:16.65 bitrate= 503.8kbits/s speed=0.555x    frame=  385 fps= 13 q=30.0 size=    1024kB time=00:00:17.05 bitrate= 492.0kbits/s speed=0.555x    frame=  388 fps= 12 q=30.0 size=    1024kB time=00:00:17.20 bitrate= 487.7kbits/s speed=0.55x    frame=  397 fps= 12 q=30.0 size=    1024kB time=00:00:17.65 bitrate= 475.3kbits/s speed=0.55x    frame=  405 fps= 12 q=30.0 size=    1024kB time=00:00:18.05 bitrate= 464.8kbits/s speed=0.553x    frame=  414 fps= 12 q=30.0 size=    1024kB time=00:00:18.50 bitrate= 453.5kbits/s speed=0.557x    frame=  423 fps= 13 q=30.0 size=    1024kB time=00:00:18.95 bitrate= 442.7kbits/s speed=0.561x    frame=  426 fps= 12 q=30.0 size=    1024kB time=00:00:19.10 bitrate= 439.2kbits/s speed=0.556x    frame=  438 fps= 13 q=30.0 size=    1024kB time=00:00:19.70 bitrate= 425.8kbits/s speed=0.563x    frame=  456 fps= 13 q=30.0 Lsize=    1350kB time=00:00:22.65 bitrate= 488.3kbits/s speed=0.627x    
video:1344kB audio:0kB subtitle:0kB other streams:0kB global headers:0kB muxing overhead: 0.460366%
[libx264 @ 0x560351efb5c0] frame I:2     Avg QP:23.19  size: 28282
[libx264 @ 0x560351efb5c0] frame P:115   Avg QP:24.04  size:  6111
[libx264 @ 0x560351efb5c0] frame B:339   Avg QP:27.18  size:  1818
[libx264 @ 0x560351efb5c0] consecutive B-frames:  0.9%  0.0%  0.0% 99.1%
[libx264 @ 0x560351efb5c0] mb I  I16..4: 24.6% 47.7% 27.7%
[libx264 @ 0x560351efb5c0] mb P  I16..4:  1.9%  2.5%  0.4%  P16..4: 23.1% 11.0%  5.5%  0.0%  0.0%    skip:55.6%
[libx264 @ 0x560351efb5c0] mb B  I16..4:  0.1%  0.2%  0.0%  B16..8: 21.2%  3.5%  0.8%  direct: 1.7%  skip:72.5%  L0:42.9% L1:52.4% BI: 4.8%
[libx264 @ 0x560351efb5c0] 8x8 transform intra:53.2% inter:55.9%
[libx264 @ 0x560351efb5c0] coded y,uvDC,uvAC intra: 30.2% 42.6% 18.4% inter: 5.6% 6.5% 1.9%
[libx264 @ 0x560351efb5c0] i16 v,h,dc,p: 15% 69%  3% 13%
[libx264 @ 0x560351efb5c0] i8 v,h,dc,ddl,ddr,vr,hd,vl,hu: 23% 18% 46%  2%  2%  3%  2%  2%  3%
[libx264 @ 0x560351efb5c0] i4 v,h,dc,ddl,ddr,vr,hd,vl,hu: 26% 39% 16%  2%  3%  3%  4%  2%  4%
[libx264 @ 0x560351efb5c0] i8c dc,h,v,p: 45% 35% 13%  7%
[libx264 @ 0x560351efb5c0] Weighted P-Frames: Y:0.0% UV:0.0%
[libx264 @ 0x560351efb5c0] ref P L0: 57.8%  8.7% 23.3% 10.2%
[libx264 @ 0x560351efb5c0] ref B L0: 84.8% 11.9%  3.3%
[libx264 @ 0x560351efb5c0] ref B L1: 96.2%  3.8%
[libx264 @ 0x560351efb5c0] kb/s:482.67
mkdir: Dropbox/ButeWinds/Bute3d43Stop5d: File exists
0
1
2
3
4
5
6
7
8
9
10
11
12
13
14
15
16
17
18
19
20
21
22
23
24
25
26
27
28
29
30
31
32
33
34
35
36
37
38
39
40
41
42
43
44
45
46
47
48
49
50
51
52
53
54
55
56
57
58
59
60
61
62
63
64
65
66
67
68
69
70
71
72
73
74
75
76
77
78
79
80
81
82
83
84
85
86
87
88
89
90
91
92
93
94
95
96
97
98
99
100
101
102
103
104
105
106
107
108
109
110
111
112
113
114
115
116
117
118
119
120
121
122
123
124
125
126
127
128
129
130
131
132
133
134
135
136
137
138
139
140
141
142
143
144
145
146
147
148
149
150
151
152
153
154
155
156
157
158
159
160
161
162
163
164
165
166
167
168
169
170
171
172
173
174
175
176
177
178
179
180
181
182
183
184
185
186
187
188
189
190
191
192
193
194
195
196
197
198
199
200
201
202
203
204
205
206
207
208
209
210
211
212
213
214
215
216
217
218
219
220
221
222
223
224
225
226
227
228
229
230
231
232
233
234
235
236
237
238
239
240
241
242
243
244
245
246
247
248
249
250
251
252
253
254
255
256
257
258
259
260
261
262
263
264
265
266
267
268
269
270
271
272
273
274
275
276
277
278
279
280
281
282
283
284
285
286
287
288
289
290
291
292
293
294
295
296
297
298
299
300
301
302
303
304
305
306
307
308
309
310
311
312
313
314
315
316
317
318
319
320
321
322
323
324
325
326
327
328
329
330
331
332
333
334
335
336
337
338
339
340
341
342
343
344
345
346
347
348
349
350
351
352
353
354
355
356
357
358
359
360
361
362
363
364
365
366
367
368
369
370
371
372
373
374
375
376
377
378
379
380
381
382
383
384
385
386
387
388
389
390
391
392
393
394
395
396
397
398
399
400
401
402
403
404
405
406
407
408
409
410
411
412
413
414
415
416
417
418
419
420
421
422
423
424
425
426
427
428
429
430
431
432
433
434
435
436
437
438
439
440
441
442
443
444
445
446
447
448
449
450
451
452
453
454
455
456
